<svg width="95" height="93" viewBox="0 0 95 93" fill="none" xmlns="http://www.w3.org/2000/svg">
<g filter="url(#filter0_d)">
<path d="M59.1889 52.6561C58.8372 53.2067 58.3273 53.567 57.6591 53.7371C56.9909 53.9071 56.3535 53.8302 55.7468 53.5063C55.1402 53.1824 54.7445 52.7087 54.5599 52.0852C54.3753 51.4618 54.4588 50.8747 54.8105 50.3241C55.8831 48.6075 56.481 46.7734 56.604 44.822C56.7271 42.8706 56.3798 41.0122 55.5622 39.247C54.7445 37.4818 53.5357 35.9676 51.9355 34.7045C52.762 34.9636 53.5357 35.2875 54.2566 35.6761C55.8391 36.5182 57.1755 37.6073 58.2657 38.9434C59.3559 40.2794 60.1208 41.7045 60.5604 43.2187C61 44.7329 61.1099 46.32 60.8901 47.9799C60.6703 49.6399 60.1032 51.1986 59.1889 52.6561ZM54.2566 57.1987C52.674 58.0408 50.9816 58.5631 49.1793 58.7655C47.3769 58.9679 45.6537 58.8667 44.0096 58.4618C42.3655 58.057 40.8181 57.3525 39.3675 56.3484C37.9168 55.3444 36.7343 54.1136 35.8199 52.6561C35.4683 52.1055 35.3803 51.5184 35.5562 50.8949C35.732 50.2715 36.1232 49.7978 36.7299 49.4739C37.3365 49.15 37.9783 49.0731 38.6553 49.2431C39.3323 49.4131 39.8466 49.7735 40.1983 50.3241C41.0072 51.6196 42.027 52.7371 43.2579 53.6764C44.4888 54.6156 45.8163 55.316 47.2406 55.7776C48.6649 56.2391 50.164 56.4902 51.7377 56.5306C53.3115 56.5711 54.8369 56.3404 56.3139 55.8383C55.6633 56.3727 54.9775 56.8262 54.2566 57.1987ZM47.5044 38.664C45.3416 38.664 43.315 39.1053 41.4248 39.9879C39.5345 40.8705 37.9652 42.077 36.7167 43.6074C35.4683 45.1378 34.6418 46.8585 34.2374 48.7694C34.0791 47.9759 34 47.1985 34 46.4374C34 44.7532 34.3561 43.1418 35.0682 41.6033C35.7804 40.0649 36.7387 38.7409 37.9432 37.6316C39.1477 36.5223 40.5852 35.6397 42.2556 34.9838C43.9261 34.3279 45.6757 34 47.5044 34C48.2078 34 48.8056 34.2267 49.2979 34.6802C49.7903 35.1336 50.0365 35.6842 50.0365 36.332C50.0365 36.9798 49.7903 37.5304 49.2979 37.9839C48.8056 38.4373 48.2078 38.664 47.5044 38.664Z" fill="#FF0000"/>
</g>
<defs>
<filter id="filter0_d" x="0" y="0" width="95" height="92.8667" filterUnits="userSpaceOnUse" color-interpolation-filters="sRGB">
<feFlood flood-opacity="0" result="BackgroundImageFix"/>
<feOffset/>
<feGaussianBlur stdDeviation="17"/>
<feColorMatrix type="matrix" values="0 0 0 0 1 0 0 0 0 0.42 0 0 0 0 0 0 0 0 1 0"/>
<feBlend mode="normal" in2="BackgroundImageFix" result="effect1_dropShadow"/>
<feBlend mode="normal" in="SourceGraphic" in2="effect1_dropShadow" result="shape"/>
</filter>
</defs>
</svg>