<svg width="32" height="30" viewBox="0 0 32 30" fill="none" xmlns="http://www.w3.org/2000/svg">
<path d="M28.4444 6.75374V3.82027C28.4444 3.31999 28.1728 3.06984 27.6296 3.06984H24.5185C23.9753 3.06984 23.7037 3.31999 23.7037 3.82027V6.75374C23.7037 7.20855 23.9753 7.43595 24.5185 7.43595H27.6296C28.1728 7.43595 28.4444 7.20855 28.4444 6.75374ZM3.92593 26.4012H27.6296C28.1728 26.4012 28.4444 26.1511 28.4444 25.6508V13.3029H25.1111C25.2099 13.8487 25.2593 14.3262 25.2593 14.7355C25.2593 17.146 24.3333 19.204 22.4815 20.9095C20.6296 22.615 18.3951 23.4677 15.7778 23.4677C13.1605 23.4677 10.9259 22.615 9.07407 20.9095C7.22222 19.204 6.2963 17.146 6.2963 14.7355C6.2963 14.2352 6.34568 13.7577 6.44444 13.3029H3.18518V25.6508C3.18518 26.1511 3.4321 26.4012 3.92593 26.4012ZM15.8148 8.93679C14.0617 8.93679 12.5679 9.5053 11.3333 10.6423C10.0988 11.7793 9.48148 13.1437 9.48148 14.7355C9.48148 16.3273 10.0988 17.6917 11.3333 18.8287C12.5679 19.9657 14.0617 20.5343 15.8148 20.5343C17.5679 20.5343 19.0617 19.9657 20.2963 18.8287C21.5309 17.6917 22.1481 16.3273 22.1481 14.7355C22.1481 13.1437 21.5309 11.7793 20.2963 10.6423C19.0617 9.5053 17.5679 8.93679 15.8148 8.93679ZM28.4444 0.20459C29.3333 0.20459 30.0864 0.488841 30.7037 1.05734C31.321 1.62585 31.6296 2.29668 31.6296 3.06984V26.4012C31.6296 27.1744 31.321 27.8452 30.7037 28.4137C30.0864 28.9822 29.3333 29.2665 28.4444 29.2665H3.18518C2.2963 29.2665 1.54321 28.9822 0.925926 28.4137C0.308642 27.8452 0 27.1744 0 26.4012V3.06984C0 2.29668 0.308642 1.62585 0.925926 1.05734C1.54321 0.488841 2.2963 0.20459 3.18518 0.20459H28.4444Z" fill="#EC290F"/>
</svg>