<?xml version="1.0" encoding="UTF-8"?>
<!DOCTYPE svg PUBLIC "-//W3C//DTD SVG 1.1//EN" "http://www.w3.org/Graphics/SVG/1.1/DTD/svg11.dtd">
<!-- Creator: CorelDRAW 2019 (64-Bit) -->
<svg xmlns="http://www.w3.org/2000/svg" xml:space="preserve" width="114.875mm" height="43.5165mm" version="1.1" style="shape-rendering:geometricPrecision; text-rendering:geometricPrecision; image-rendering:optimizeQuality; fill-rule:evenodd; clip-rule:evenodd"
viewBox="0 0 12311.94 4663.95"
 xmlns:xlink="http://www.w3.org/1999/xlink"
 xmlns:xodm="http://www.corel.com/coreldraw/odm/2003">
 <defs>
  <style type="text/css">
   <![CDATA[
    .fil0 {fill:#FEFEFE}
    .fil1 {fill:#FEFEFE;fill-rule:nonzero}
   ]]>
  </style>
 </defs>
 <g id="Слой_x0020_1">
  <metadata id="CorelCorpID_0Corel-Layer"/>
  <path class="fil0" d="M10067.54 3283.29c55.75,157.05 418.11,41.52 166.19,-421.78 -280.45,-312.26 -2505.69,-208.98 -4527.41,157.95 -1924.11,349.2 -3714.38,837.3 -3663.25,1047.9 28.46,117.14 109.43,238.36 211.65,287.93 28.89,14.02 69.21,8.81 98.52,-19.08 946.01,-900.58 6743.75,-1836.22 7790.16,-1202.39 53.82,32.61 30.79,148.26 -75.86,149.48zm-4482.53 -1506.38c46.35,-73.81 107.05,-156.31 186.33,-239.1 239.76,-250.51 461.31,-390.62 493.76,-377.8 32.47,12.76 24.34,64.79 24.34,64.79 0,0 93.46,-68.46 54.27,-103.53 -39.18,-35.07 -155.7,-33.66 -232.16,4.07 -76.49,37.68 -231.68,128.53 -452.5,341.9 -7.34,7.11 -14.59,14.22 -21.76,21.39 -5.12,-63.4 -27.87,-112.7 -73.68,-140.61 -132.67,-80.81 -268.39,-3.27 -363.47,82.47 -25.36,-14.52 -51.05,-22.11 -73.07,-15.68 -102.25,29.83 -236.53,250.94 -327.39,494.49l-2.69 7.27c-53.16,63.15 -108.48,127.33 -164.42,189.86 -127.78,142.86 -258.47,277.35 -375.93,369.42 26.32,-89.81 63.11,-200.24 117.88,-330.45 168.24,-399.85 279.53,-464.34 288.73,-529.26 12.37,-87.22 -112.55,-191.97 -188.71,-174.88 -70.46,15.81 -205.83,256.95 -314.89,519.07 -11.62,27.88 -22.96,56.04 -33.93,84.22 -96.03,53.53 -215.05,121.95 -313.66,177.85 151.31,-351.78 251.32,-415.34 260.06,-477.77 12.35,-88.12 -113.63,-189.82 -188.73,-171.17 -67.48,16.76 -193.04,241.63 -298.99,494.93 -84.5,111.12 -179.45,232.37 -276.22,348.38 -125.34,150.28 -254.2,292.36 -370.86,391.11 25.02,-92.15 60.06,-205.54 112.8,-339.61 162,-411.91 239.72,-413.66 248.96,-480.12 12.35,-88.9 -100.39,-175.23 -164.83,-117.82 -46.93,41.82 -391.82,436.23 -164.84,-1.85 71.98,-138.93 190.98,-248.62 201.19,-275.53 26.16,-78.39 -45.48,-144.05 -112.52,-140.54 -213.31,11.17 -434.25,451.15 -374.11,658.1 -63.52,76.03 -128.09,154.21 -188.41,228.5 18.08,-130.92 -0.04,-232.1 -75.23,-270.59 -135.2,-69.19 -267.52,23.55 -359.23,120.98 -26.39,-12.65 -52.88,-17.93 -75.03,-8.72 -97.96,40.74 -225.16,282.47 -306.94,544.56 -81.9,262.51 -116.8,542.15 -34.1,654.98 11.27,15.39 52.31,20.73 99,21.44 39.79,27.89 100.48,49.91 180.68,20.76 105.89,-38.45 301.67,-342.2 436.52,-652.18 23.2,-53.32 44.53,-106.88 63.23,-159.4 28.53,-42.59 59.27,-88.67 91.37,-136.99 63.07,-95.02 132.37,-198.61 200.8,-301.95 34.82,38.95 92.5,55.41 178.9,36.15 -133.02,271.36 -256.27,626.8 -229.64,747.74 10.86,49.28 130.18,150.99 178.48,146.12 7.26,-0.74 13.32,-6.28 18.93,-16.53 176.08,-155.86 358.43,-379.5 524.46,-615.25 34.02,-48.32 67.34,-97.27 99.76,-146.38 -64.35,189.23 -104.4,359.52 -88.38,432.12 10.77,48.84 127.33,153.29 176.2,149.81 44.26,-3.14 46.12,-179.19 168.91,-513.3 104.8,-55.1 209.95,-109.86 315.08,-163.98 -55.37,167.62 -88.36,314.53 -74.73,380.88 10.01,48.74 126.76,154 175.06,151.69 7.31,-0.35 13.47,-5.58 19.24,-15.51 177.37,-145.12 364.66,-358.29 533.25,-582.88l18.51 -24.81c-37.66,165.96 -41.91,316.91 12.19,396.83 11.4,16.85 54.04,26.92 102.05,32.9 38.17,30.81 96.72,57.94 176.46,39.92 106.73,-24.14 312.69,-298.35 457,-583.53 41.88,-82.79 78.83,-166.99 106.65,-246.98zm-4054.22 -623.71c-622.89,204.91 -1567.97,686.48 -1529.66,801.29 13.8,83.17 70.39,196.58 161.03,231.76 52.69,26.01 162.37,-147.04 662.93,-409.84 163.87,-86.03 516.23,-251.28 934.06,-409.7 -151.2,297.88 -323.11,689.06 -468.03,1085.12 -137.42,375.57 -253.76,755.2 -321.12,1062.21 -67.55,307.93 -89.31,541.99 -35.75,620.86 32.38,47.67 169.06,164.1 222.22,150.18 15.13,-3.97 4.15,-174.88 38.91,-483.11 34.65,-307.51 115.79,-749.64 319.11,-1287.55 176.46,-466.96 380.43,-798.72 540.56,-1022.23 103.82,-144.9 190.11,-245.54 239.03,-309.83 742.41,-228.31 1526.69,-343.25 1803.63,39.45 26.27,81.36 -40.13,166.79 -90.78,195.92 372.86,110.21 467.95,-686.33 -795.41,-619.75 -178.29,9.42 -534.73,63.67 -927.24,151.31 -48.78,-74.29 -120.37,-133.69 -170.11,-115.48 -37.46,13.74 -96.38,84.88 -167.69,197.41 -141.11,37.09 -281.71,77.92 -415.67,121.99zm9708.7 533.4c62.3,-76.89 191.41,-226.68 405.29,-354.45 297.65,-177.88 548.4,-254.16 576.33,-233.2 27.9,20.93 6.28,68.93 6.28,68.93 0,0 108.25,-41.21 79.77,-85.4 -28.46,-44.22 -141.15,-73.77 -224.91,-57.69 -83.74,16.02 -257.47,62.43 -527.01,209.55 -56.63,30.92 -110.42,64.26 -160.08,97.71 21.74,-101.96 12.25,-189.15 -44.51,-244.64 -117.91,-115.27 -257.4,-68.82 -358.73,-4.07 -22.76,-20.8 -46.6,-34.61 -68.58,-33.32 -100.44,5.82 -256.59,195.89 -371.01,419.33l-3.18 6.26c-57.78,49.83 -117.71,99.88 -178.08,147.87 -138.98,110.51 -280.11,210.3 -403.66,270.65 35.22,-82.33 82.77,-182.58 150.03,-298.15 207.05,-355.87 322.69,-394.54 338.65,-457.06 21.53,-84.33 -87.66,-220.97 -162.72,-222.07 -69.32,-0.99 -227.06,206.28 -362.88,439.69 -13.95,23.99 -27.71,48.28 -41.1,72.64 -98.71,28.04 -221.61,64.98 -323.51,94.87 185.27,-307.51 289.81,-344.61 305,-404.3 21.48,-84.35 -88.92,-218.48 -163.98,-218.88 -67.82,-0.32 -215.28,192.77 -345.44,415.67 -93.27,87.16 -197.49,180.86 -303.01,268.08 -138.01,114.11 -279.58,219.2 -404.25,284.55 34.24,-83.34 80.68,-184.97 146.78,-302.5 202.08,-359.34 278.13,-341.82 294.06,-403.87 21.5,-83.84 -78.51,-196.65 -145.19,-157.61 -50.21,29.34 -428.56,326.8 -161.95,-41.85 85.94,-118.86 215.06,-196.25 226.38,-219.85 33.94,-69.47 -28.2,-151 -93.7,-163.63 -208.47,-40.26 -470.45,330.84 -434.31,546.9 -69.7,57.17 -140.68,115.99 -207.31,171.94 31.87,-121.48 25.27,-223.67 -44.45,-279.24 -124.34,-99.15 -264.01,-41.47 -364.27,30.14 -24.2,-18.17 -49.26,-29.43 -71.77,-26.14 -99.76,14.54 -250.69,212.39 -358.36,440.36 -4.97,10.52 -9.84,21.1 -14.6,31.72 -106.13,118.71 -234.95,262.09 -365.84,405.88 -315.86,347.01 -646.78,701.77 -712.78,691.15 -31.76,-5.12 -38.55,-131.96 9.09,-349.28 47.82,-218.23 150.64,-525.81 338.76,-889.23 188.14,-363.44 392.12,-650.41 555.9,-841.89 164.72,-192.59 273.98,-300.6 321.72,-269.05 15.79,10.43 5.63,64.22 -20.85,140.81 -160.75,170.13 -355.33,387.84 -520.29,599.98 -278.42,358.06 -476.88,699.71 -310.98,752.4 23.99,28.63 56.59,53.79 97.26,53.79 96.64,0 425.74,-434.88 633.2,-746.36 207.45,-311.48 232.54,-414.88 289.89,-579.83 24.17,-69.55 42.99,-128.57 55.53,-177.38 84.25,-68.93 162.51,-124.46 228.67,-161.71 0,0 49.44,-47.57 -23.87,-82.58 -73.3,-35 -137.56,31.55 -137.56,31.55 -12.06,9.76 -32.77,28.56 -60.36,54.93 -37.48,-52.95 -197.28,-136.09 -256.81,-128.22 -64.79,8.58 -187.06,72.63 -384.23,257.44 -197.28,184.89 -450.19,492.63 -712.78,978.75 -262.59,486.11 -372.89,834.5 -414.95,1070.6 -42.05,236.08 -22.72,338.62 3.42,397.53 26.13,58.92 243.25,130.25 334.22,95.57 153.43,-58.54 489.05,-449.77 782.11,-825.23 64.82,-83.02 127.71,-165.42 186.16,-243.73 -37.31,139.48 -44.92,266.54 -2.32,344.31 9.6,17.54 49.78,33.54 95.79,46.58 35.81,36.85 92.11,73.5 172.05,67.96 106.24,-7.34 331.26,-247.49 495.9,-511.07 28.55,-45.74 55.37,-92.3 79.44,-138.58l102.58 -106.54c71.89,-74.75 150.34,-156.85 227.81,-239.36 29.54,46.35 83.47,76.81 168.75,80.31 -157.39,229.08 -315.59,540.2 -302.73,664.89 5.19,50.29 107.2,180.27 155.17,188.74 7.35,1.31 14.04,-2.56 20.76,-11.38 187.92,-104.96 390.29,-273.57 574.49,-458.42 38.89,-39.03 77.04,-78.89 114.15,-119.15 -82.49,169.37 -139.34,326.09 -132.89,401.54 4.34,50.81 106.44,183.94 153.78,193.78 42.85,8.92 62.83,-162.88 218.23,-460.31 107.38,-26.88 215.1,-53.2 322.78,-79.11 -71.9,151.29 -119.65,287.56 -113.77,356.73 4.32,51.26 105.09,188.51 152.38,199.28 7.28,1.66 13.91,-1.96 20.7,-10.49 186.62,-96.68 390.74,-259.14 577.07,-439.69l20.88 -20.4c-54.46,156.96 -75.83,307.84 -32.89,403.39 8.95,19.93 48.22,41.56 93.16,60.61 33.09,41.93 86.27,85.89 165.07,89.27 104.5,4.47 333.96,-218.93 505.57,-473.98 16.36,-24.32 32.22,-48.96 47.41,-73.75zm-9103.99 555.75c49.43,-46.03 104.25,-85.38 140.48,-76.53 114.85,28.06 18.49,282.98 -129.6,550.15 -83.72,151.07 -184.61,307.7 -275.83,429.14 4.13,-146.19 52.41,-293.59 109.85,-423.56 89.27,-201.96 204.63,-361.81 206.92,-410.52 2.42,-8.09 -19.69,-38.66 -51.81,-68.67zm3137.17 -752.97c51.22,-40.26 107.92,-73.56 144.29,-61.08 111.65,38.27 8.47,276.07 -148.93,520.45 -89.21,138.54 -195.93,279.54 -291.33,386.65 8.73,-141.09 61.84,-278.51 124.23,-397.8 97.76,-186.92 216,-330.25 220.53,-377.57 2.41,-7.48 -18.27,-38.81 -48.79,-70.65zm2665.22 -370.55c53.08,-32.25 110.92,-56.78 145.89,-39.44 107.96,53.55 -11.99,275.45 -185.6,494.76 -97.91,123.66 -213.37,246.65 -315.55,338.04 19.69,-138.1 82.69,-265.8 152.2,-374.37 109.16,-170.46 238.97,-295.41 245.67,-341.55 3.23,-7.13 -14.8,-41.28 -42.61,-77.44zm3117.46 42.09c53.61,-28.62 111.66,-48.75 145.21,-27.06 103.58,66.99 -22.79,285.57 -202.69,494.93 -101.66,118.28 -219.61,233.24 -322.92,316.39 24.83,-139.95 91.56,-264.66 164.94,-370.13 115.02,-165.29 246.35,-282.54 255.39,-329.95 2.74,-6.98 -13.91,-44.11 -39.93,-84.17zm-4180.92 283.06c69.41,-178.46 202.99,-385.49 360.29,-582.99 72.02,-90.44 149.21,-178.59 227.57,-261.26 -56.92,122.9 -126.98,255.83 -192.33,360.98 -88.06,141.7 -258.93,336.21 -395.52,483.27z"/>
  <path class="fil1" d="M4696.4 4261.45l0 -94.95c0,-16.81 -3.37,-28.57 -11.77,-38.65 -4.2,-4.2 -10.92,-6.73 -18.49,-6.73 -15.97,0 -23.53,11.77 -26.89,22.69 -2.52,6.72 -3.37,14.29 -3.37,22.69l0 371.4c0,17.65 4.2,29.41 12.6,38.66 4.2,4.2 10.09,6.72 17.65,6.72 15.96,0 23.53,-10.09 26.89,-22.69 2.52,-5.87 3.37,-13.44 3.37,-22.69l0 -111.75 -36.14 0 0 -76.47 126.88 0 0 307.54 -53.77 0 -10.92 -29.41c-16.81,21.01 -41.18,36.14 -70.59,36.14 -29.41,0 -49.58,-7.57 -64.7,-21.02 -15.12,-12.6 -25.21,-28.56 -31.93,-45.37 -7.57,-19.32 -10.92,-42.01 -10.09,-67.22l0 -363.84c0.84,-24.37 5.88,-47.06 15.13,-66.39 7.56,-16.81 18.48,-33.61 35.28,-46.21 16.81,-12.6 40.33,-21.01 70.59,-21.01 30.26,0 52.93,8.4 69.74,21.01 16.81,12.6 28.57,29.41 36.13,46.21 9.25,19.32 14.29,42.01 15.12,66.39l0 94.95 -90.74 0zm319.3 395.77l-47.06 -260.48 -24.37 0 0 260.48 -90.75 0 0 -617.61 90.75 0c108.4,0 154.61,61.35 154.61,178.14 0,61.35 -15.97,116.8 -50.42,140.33l57.98 299.14 -90.75 0zm-71.43 -344.51c12.61,0 29.41,-1.68 42.86,-13.45 13.44,-11.76 24.37,-34.45 24.37,-78.14 0,-43.7 -10.93,-67.22 -24.37,-78.99 -13.45,-11.76 -30.25,-12.6 -42.86,-12.6l0 183.19zm212.6 -273.1l90.75 0 0 617.61 -90.75 0 0 -617.61zm157.97 0l90.75 0 0 533.58 120.17 0 0 84.03 -210.91 0 0 -617.61zm247.89 0l90.75 0 0 533.58 120.16 0 0 84.03 -210.9 0 0 -617.61zm528.1 617.61l-58.39 -388.2 -3.37 -26.05 -5.04 0 0 414.26 -84.03 0 0 -617.61 111.06 0 54.06 282.34 4.2 32.77 1.67 0 4.2 -32.77 53.5 -282.34 110.77 0 0 617.61 -84.02 0 0 -414.26 -5.05 0 -3.37 26.05 -57.69 388.2 -38.52 0zm231.08 0l93.28 -617.61 110.91 0 93.28 617.61 -88.23 0 -16.81 -126.04 -87.39 0 -16.81 126.04 -88.23 0zm153.77 -416.78l-2.52 -15.96 -5.04 0 -2.52 15.96 -26.05 194.94 62.18 0 -26.05 -194.94zm347.46 416.78l-47.05 -260.48 -24.37 0 0 260.48 -90.75 0 0 -617.61 90.75 0c108.4,0 154.61,61.35 154.61,178.14 0,61.35 -15.97,116.8 -50.42,140.33l57.98 299.14 -90.76 0zm-71.42 -344.51c12.6,0 29.41,-1.68 42.86,-13.45 13.44,-11.76 24.36,-34.45 24.36,-78.14 0,-43.7 -10.92,-67.22 -24.36,-78.99 -13.45,-11.76 -30.26,-12.6 -42.86,-12.6l0 183.19zm303.34 -273.1l0 215.96 3.37 0 4.2 -10.09 75.62 -205.88 88.23 0 -83.19 203.35 94.11 414.26 -87.95 0 -63.02 -268.88 -2.52 -12.6 -2.53 0 -5.04 12.6 -21.15 50.42 0 218.47 -90.75 0 0 -617.61 90.61 0zm224.35 0l207.55 0 0 93.28 -116.8 0 0 162.17 84.04 0 0 99.16 -84.04 0 0 169.74 116.8 0 0 93.27 -207.55 0 0 -617.61zm226.04 93.28l0 -93.28 262.18 0 0 93.28 -85.71 0 0 524.33 -90.76 0 0 -524.33 -85.71 0z"/>
 </g>
</svg>
