<svg width="67" height="67" viewBox="0 0 67 67" fill="none" xmlns="http://www.w3.org/2000/svg">
<circle cx="33.5" cy="33.5" r="33.5" fill="#FF0000" fill-opacity="0.5"/>
<circle cx="33.5" cy="33.5" r="27.5" fill="#FF0000"/>
<path d="M30.418 24.7449C29.0152 25.0186 27.7259 25.7047 26.7153 26.7153C25.7047 27.7259 25.0186 29.0152 24.7449 30.418L30.418 24.7449ZM30.418 19C27.5035 19.3238 24.7857 20.6289 22.7109 22.7012C20.636 24.7734 19.3274 27.4895 19 30.4036L30.418 19ZM20.4362 41.8647V46.1733C20.4346 46.5733 20.5165 46.9693 20.6768 47.3357C20.837 47.7022 21.072 48.0312 21.3668 48.3016C21.6615 48.572 22.0095 48.7779 22.3884 48.9061C22.7673 49.0342 23.1688 49.0818 23.5672 49.0458C27.9867 48.5656 32.2319 47.0554 35.9618 44.6366C39.432 42.4315 42.3741 39.4894 44.5791 36.0192C47.0064 32.2724 48.5169 28.0065 48.9883 23.5672C49.0242 23.17 48.977 22.7697 48.8497 22.3918C48.7225 22.0139 48.5179 21.6666 48.249 21.3721C47.9802 21.0776 47.6529 20.8423 47.2882 20.6811C46.9234 20.52 46.529 20.4366 46.1303 20.4362H41.8216C41.1246 20.4294 40.4489 20.6762 39.9204 21.1307C39.3919 21.5852 39.0467 22.2163 38.9491 22.9065C38.7673 24.2854 38.43 25.6393 37.9438 26.9423C37.7506 27.4564 37.7087 28.0151 37.8233 28.5521C37.9378 29.0892 38.2039 29.5823 38.5901 29.9727L40.4141 31.7967C38.3695 35.3924 35.3924 38.3695 31.7967 40.4141L29.9727 38.5901C29.5823 38.2039 29.0892 37.9378 28.5522 37.8233C28.0151 37.7087 27.4564 37.7506 26.9423 37.9438C25.6393 38.43 24.2854 38.7673 22.9065 38.9491C22.2089 39.0476 21.5717 39.399 21.1162 39.9365C20.6608 40.4741 20.4187 41.1603 20.4362 41.8647Z" stroke="white" stroke-width="2" stroke-linecap="round" stroke-linejoin="round"/>
</svg>