<svg width="74" height="74" viewBox="0 0 74 74" fill="none" xmlns="http://www.w3.org/2000/svg">
<path fill-rule="evenodd" clip-rule="evenodd" d="M37 74C57.4345 74 74 57.4345 74 37C74 16.5655 57.4345 0 37 0C16.5655 0 0 16.5655 0 37C0 57.4345 16.5655 74 37 74ZM34.3901 22.1298V46.0897L26.0072 38.3693C25.8627 38.2362 25.6941 38.1252 25.5014 38.0365C25.3087 37.9478 25.116 37.8812 24.9233 37.8368C24.7306 37.7925 24.5378 37.7703 24.3451 37.7703C24.1524 37.7703 23.9597 37.7925 23.767 37.8368C23.5743 37.8812 23.3936 37.9478 23.225 38.0365C23.0564 38.1252 22.8998 38.2362 22.7553 38.3693C21.8881 39.1679 21.7677 40.0331 22.394 40.9649C22.4903 41.1424 22.6108 41.2977 22.7553 41.4308L36.7748 54.0098L50.7944 41.4308C51.228 40.9871 51.4448 40.4769 51.4448 39.9C51.4448 39.3232 51.2159 38.8241 50.7582 38.4025C50.3006 37.981 49.7586 37.7703 49.1323 37.7703C48.506 37.7703 47.9519 37.9699 47.4702 38.3693L39.0151 46.2228V22.1298C39.0151 21.5086 38.7862 20.9983 38.3285 20.599C37.8709 20.1997 37.3289 20 36.7026 20C36.3653 20 36.0522 20.0555 35.7631 20.1664C35.474 20.2773 35.2332 20.4215 35.0405 20.599C34.8477 20.7765 34.6912 20.9983 34.5707 21.2646C34.4503 21.5308 34.3901 21.8192 34.3901 22.1298Z" fill="white"/>
</svg>