<svg width="32" height="30" viewBox="0 0 32 30" fill="none" xmlns="http://www.w3.org/2000/svg">
<path d="M28.4444 6.7536V3.82011C28.4444 3.31982 28.1728 3.06968 27.6296 3.06968H24.5185C23.9753 3.06968 23.7037 3.31982 23.7037 3.82011V6.7536C23.7037 7.20841 23.9753 7.43581 24.5185 7.43581H27.6296C28.1728 7.43581 28.4444 7.20841 28.4444 6.7536ZM3.92593 26.4012H27.6296C28.1728 26.4012 28.4444 26.151 28.4444 25.6508V13.3028H25.1111C25.2099 13.8486 25.2593 14.3261 25.2593 14.7354C25.2593 17.1459 24.3333 19.2039 22.4815 20.9094C20.6296 22.6149 18.3951 23.4677 15.7778 23.4677C13.1605 23.4677 10.9259 22.6149 9.07407 20.9094C7.22222 19.2039 6.2963 17.1459 6.2963 14.7354C6.2963 14.2351 6.34568 13.7576 6.44444 13.3028H3.18518V25.6508C3.18518 26.151 3.4321 26.4012 3.92593 26.4012ZM15.8148 8.93667C14.0617 8.93667 12.5679 9.50517 11.3333 10.6422C10.0988 11.7792 9.48148 13.1436 9.48148 14.7354C9.48148 16.3272 10.0988 17.6917 11.3333 18.8287C12.5679 19.9657 14.0617 20.5342 15.8148 20.5342C17.5679 20.5342 19.0617 19.9657 20.2963 18.8287C21.5309 17.6917 22.1481 16.3272 22.1481 14.7354C22.1481 13.1436 21.5309 11.7792 20.2963 10.6422C19.0617 9.50517 17.5679 8.93667 15.8148 8.93667ZM28.4444 0.204407C29.3333 0.204407 30.0864 0.48866 30.7037 1.05717C31.321 1.62567 31.6296 2.29651 31.6296 3.06968V26.4012C31.6296 27.1744 31.321 27.8452 30.7037 28.4137C30.0864 28.9822 29.3333 29.2665 28.4444 29.2665H3.18518C2.2963 29.2665 1.54321 28.9822 0.925926 28.4137C0.308642 27.8452 0 27.1744 0 26.4012V3.06968C0 2.29651 0.308642 1.62567 0.925926 1.05717C1.54321 0.48866 2.2963 0.204407 3.18518 0.204407H28.4444Z" fill="white"/>
</svg>