<svg width="60" height="60" viewBox="0 0 60 60" fill="none" xmlns="http://www.w3.org/2000/svg">
<circle cx="30" cy="30" r="30" fill="#FF0000"/>
<path d="M40 50C43.32 50 46 47.32 46 44C46 40.68 43.32 38 40 38C37.4 38 35.2 39.68 34.36 42H24.28L28.26 35.88C29.4145 36.0394 30.5855 36.0394 31.74 35.88L33.78 39.02C34.62 37.96 35.7 37.12 36.98 36.6L35.78 34.74C38.23 33.6316 40.3085 31.8403 41.7664 29.5807C43.2243 27.3211 43.9998 24.6891 44 22H16C16 27.68 19.38 32.54 24.24 34.74L16.34 46.9C16.0524 47.3434 15.952 47.8825 16.0607 48.3996C16.1694 48.9168 16.4783 49.3699 16.92 49.66C17.3634 49.9476 17.9025 50.048 18.4196 49.9393C18.9368 49.8306 19.3899 49.5217 19.68 49.08L21.68 45.98H34.36C35.2 48.32 37.4 50 40 50ZM40 42C41.1 42 42 42.9 42 44C42 45.1 41.1 46 40 46C38.9 46 38 45.1 38 44C38 42.9 38.9 42 40 42ZM20.84 26H39.16C37.62 29.52 34.08 32 30 32C25.92 32 22.38 29.52 20.84 26ZM24.82 20H26.82C27.12 17.7 27.28 16.72 25.04 14.08C24.2 13.08 23.68 12.54 24.12 10H22.14C21.72 12.22 22.2 14.1 23.92 15.92C24.36 16.4 25.5 17.26 24.82 20ZM29.78 20H31.78C32.08 17.7 32.24 16.72 30 14.08C29.16 13.08 28.64 12.52 29.08 10H27.1C26.68 12.22 27.16 14.1 28.88 15.92C29.34 16.4 30.48 17.26 29.78 20ZM34.82 20H36.82C37.12 17.7 37.28 16.72 35.04 14.08C34.2 13.08 33.68 12.54 34.12 10H32.14C31.72 12.22 32.2 14.1 33.92 15.92C34.36 16.4 35.5 17.26 34.82 20Z" fill="white"/>
</svg>