<svg width="24" height="38" viewBox="0 0 24 38" fill="none" xmlns="http://www.w3.org/2000/svg">
<path d="M12 0.620697C5.6474 0.620697 0.5 5.7474 0.5 12.0977C0.5 23.0779 12 37.3977 12 37.3977C12 37.3977 23.5 23.0756 23.5 12.0977C23.5 5.7497 18.3526 0.620697 12 0.620697ZM12 18.448C10.353 18.448 8.77347 17.7937 7.60887 16.6291C6.44427 15.4645 5.79 13.885 5.79 12.238C5.79 10.591 6.44427 9.01146 7.60887 7.84686C8.77347 6.68226 10.353 6.028 12 6.028C13.647 6.028 15.2265 6.68226 16.3911 7.84686C17.5557 9.01146 18.21 10.591 18.21 12.238C18.21 13.885 17.5557 15.4645 16.3911 16.6291C15.2265 17.7937 13.647 18.448 12 18.448Z" fill="white"/>
</svg>